<svg xmlns="http://www.w3.org/2000/svg" viewBox="0 0 523.88 357.07"><defs><style>.cls-1{fill:#cfcfd0;}.cls-2{fill:#231f20;}.cls-3{fill:#fff;}.cls-4{fill:#939598;}</style></defs><title>logo-black</title><g id="Layer_2" data-name="Layer 2"><g id="Layer_1-2" data-name="Layer 1"><path class="cls-1" d="M351.93,238.57V128.44S351.93,88,311.47,88H125.41L57.53,10.29,58.69,88H40.46S0,88,0,128.44V238.57S0,279,40.46,279H230.94l68.2,78L298,279h13.5s40.46,0,40.46-40.46"/><path class="cls-2" d="M363.55,228.27V118.14s0-40.46-40.46-40.46H137L69.15,0l1.16,77.68H52.08s-40.46,0-40.46,40.46V228.27s0,40.47,40.46,40.47H242.56l68.2,78-1.17-78h13.5s40.46,0,40.46-40.47"/><path class="cls-3" d="M136.94,129.37c1.31-4.12,3.93-6.18,7.68-6.18s6.36,2.06,7.67,6.18l23,74h.37l23.22-74c1.31-3.93,3.37-6.18,7.49-6.18a6.15,6.15,0,0,1,6.36,6.18,19.16,19.16,0,0,1-1.12,5.06l-28.46,84.63c-1.87,5.43-5.81,6-7.49,6-3.56,0-6.18-1.68-8.24-8.42l-22.65-72.47h-.38L121,219.06c-1.5,4.87-4.87,6-7.49,6a8.63,8.63,0,0,1-7.49-6L77.59,134.43a19.29,19.29,0,0,1-1.13-5.06,6.16,6.16,0,0,1,6.37-6.18c4.12,0,6.18,2.25,7.49,6.18l23.22,74h.37Z"/><path class="cls-3" d="M224.75,180.11c.56,17.42,12.36,33.71,29.59,33.71,21.34,0,27-15.36,33.32-15.36,3.75,0,6.37,1.31,6.37,6.56,0,6-15.54,20-38.76,20-31.83,0-45.12-25.84-45.12-50.93s14.79-50.93,42.88-50.93,42.5,23.59,42.5,48.69c0,3.55-1.12,8.23-9.18,8.23Zm56.17-11.23c-.56-16.67-9.92-34.45-28.08-34.45s-27.53,17.78-28.09,34.45Z"/><path class="cls-4" d="M414.25,197.05H373.16c-4,0-5.31-1.58-5.31-4,0-1.87,1.43-4.74,3.87-8.62l34.06-56.61c2-3.45,5.31-6.46,10.34-6.46,5.32,0,8.48,3.3,8.48,8.47v57.76h5.6c3.31,0,5.46,2.16,5.46,4.74s-2.15,4.74-5.46,4.74h-5.6v21.7c0,4.31-1.87,6.61-5.17,6.61s-5.18-2.3-5.18-6.61Zm0-67.09H414l-33,57.61h33.33Z"/><path class="cls-4" d="M515.12,166.88c7.18,0,8.76,3.74,8.76,7.91,0,39.65-19.25,50.57-41.67,50.57-31.89,0-44.82-25.72-44.82-52,0-25.43,14.36-52,44.54-52,20.11,0,34.91,11.35,34.91,15.66,0,3.73-2.44,5.46-5,5.46-4.74,0-11.78-11.64-29.31-11.64-23.85,0-33.91,22.84-33.91,42.53,0,23.13,11.07,42.53,34.49,42.53,22.27,0,30.46-19,30.46-39.51H495.43c-3.3,0-5.46-2.16-5.46-4.75s2.16-4.74,5.46-4.74Z"/></g></g></svg>