<?xml version="1.0" encoding="utf-8"?>
<!-- Generator: Adobe Illustrator 18.0.0, SVG Export Plug-In . SVG Version: 6.00 Build 0)  -->
<!DOCTYPE svg PUBLIC "-//W3C//DTD SVG 1.1//EN" "http://www.w3.org/Graphics/SVG/1.1/DTD/svg11.dtd">
<svg version="1.1" id="Ebene_1" xmlns="http://www.w3.org/2000/svg" xmlns:xlink="http://www.w3.org/1999/xlink" x="0px" y="0px"
	 viewBox="0 0 707.5 161.9" enable-background="new 0 0 707.5 161.9" xml:space="preserve">
<g>
	<path fill="#34AAE2" d="M402.9,6.6v17.5c-22-2-35.9,8.7-35.9,30.6v68.3h-18.6V55.2C348.3,20.5,373,3,402.9,6.6z"/>
	<path fill="#34AAE2" d="M501.7,87.6c-8,24.4-27.5,38.2-53.9,38.2c-32.8,0-58.6-26.2-58.6-59.7c0-33.1,25.7-60.1,57.5-60.1
		c29.5,0,57.9,24.4,57.7,65h-96.1c2.4,23.7,20.6,37.7,39.5,37.7c16.2,0,27.7-7.8,33.9-21.1H501.7z M483.5,54.1
		C478.9,35.4,463.4,23,446.7,23c-15.8,0-32.4,11.5-37.3,31.1H483.5z"/>
	<path fill="#34AAE2" d="M590.9,8.8h-23.1l-23,33.3l11.5,16.7L590.9,8.8z M551.5,65.9L551.5,65.9L540,49.2l0,0L512.1,8.8h-23.1
		l39.4,57.2l-39.4,57.2h23.1L540,82.7l0,0L551.5,65.9L551.5,65.9z M544.9,89.8l23,33.3h23.1l-34.5-50L544.9,89.8z"/>
	<path fill="#34AAE2" d="M675.8,8.8h-23.1l-23,33.3l11.5,16.7L675.8,8.8z M636.4,65.9L636.4,65.9l-11.5-16.7l0,0L597,8.8h-23.1
		l39.4,57.2l-39.4,57.2H597l27.9-40.4l0,0L636.4,65.9L636.4,65.9z M629.8,89.8l23,33.3h23.1l-34.5-50L629.8,89.8z"/>
	<g>
		<path fill="#34AAE2" d="M692.6,3.4c6.4,0,11.6,5.2,11.6,11.6c0,6.4-5.2,11.6-11.6,11.6c-6.4,0-11.6-5.2-11.6-11.6
			C681,8.6,686.2,3.4,692.6,3.4z M692.6,24c4.8,0,8.6-4,8.6-9c0-5-3.8-9-8.6-9c-4.8,0-8.6,4-8.6,9C684,20.1,687.7,24,692.6,24z
			 M688.1,8.8h3.9c2.8,0,5.5,0.7,5.5,3.6c0,2.2-1.4,3.6-2.7,3.7l3.1,4.8h-3.3l-2.8-4.7h-0.7V21h-3V8.8z M691.1,13.9h1.5
			c0.8,0,2,0,2-1.3c0-1.3-1.2-1.3-2-1.3h-1.5V13.9z"/>
	</g>
	<path fill="#34AAE2" d="M244.6,9.7h21.3l30.8,85.2L330,9.7h20.7L290,159.1h-20.3l15.7-39.7L244.6,9.7z"/>
	<path fill="#34AAE2" d="M221,9.7v11.9C210.9,11.9,197.4,6,182.2,6c-32.4,0-57.5,27.1-57.5,60.3c0,32.8,25.1,59.5,57.5,59.5
		c15.2,0,28.7-5.8,38.8-15.3v12.5h18.6V9.7H221z M182.2,108.5c-21.1,0-38.4-18.9-38.4-42.2c0-23.7,17.3-43,38.4-43
		c21.3,0,38.6,19.3,38.6,43C220.8,89.7,203.5,108.5,182.2,108.5z"/>
	<path fill="#34AAE2" d="M61.6,6C46.5,6,32.9,12,22.8,21.7v-12H4.2v149.4h18.6v-48.6c10.1,9.6,23.7,15.4,38.8,15.4
		c32.6,0,57.5-26.6,57.5-59.5C119.1,33.1,94.2,6,61.6,6z M61.6,108.5c-21.1,0-38.4-18.9-38.4-42.2c0-23.7,17.3-43,38.4-43
		c21.3,0,38.6,19.3,38.6,43C100.2,89.7,82.9,108.5,61.6,108.5z"/>
</g>
</svg>
